<svg version="1.1" preserveAspectRatio="none" xmlns="http://www.w3.org/2000/svg" width="500" height="500" viewBox="0 0 500 500"><rect width="100%" height="100%" fill="#F7F4F2" fill-opacity="1"/><svg viewBox="43.5525 124.6158 359.2884 214.1349" width="333" height="198.4670857728777" x="83.5px" y="150.7665px" xmlns="http://www.w3.org/2000/svg" xmlns:xlink="http://www.w3.org/1999/xlink" preserveAspectRatio="none"><defs></defs><style>.companyName {fill:#161616;fill-opacity:1;}.icon1 {fill:#161616;fill-opacity:1;}.icon2 {fill:#E5B7D2;fill-opacity:1;}.icon3 {fill:#848282;fill-opacity:1;}.icon3-str {stroke:#848282;stroke-opacity:1;}.text {fill:#161616;fill-opacity:1;}</style><g opacity="1" transform="rotate(0 146.5128 320.7507)">
<svg width="153.3678" height="18" x="146.5128" y="320.7507" version="1.1" preserveAspectRatio="none" viewBox="3.56 -28.4 245.36 28.8">
  <g transform="matrix(1 0 0 1 0 0)" class="text"><path id="id-6izo4zJp10" d="M23.20-28.40L25.96-28.40L25.96 0L23.20 0L23.20-13.28L6.36-13.28L6.36 0L3.56 0L3.56-28.40L6.36-28.40L6.36-15.76L23.20-15.76L23.20-28.40Z M42.72 0.40L42.72 0.40Q40.44 0.40 38.56-0.46Q36.68-1.32 35.30-2.80Q33.92-4.28 33.16-6.24Q32.40-8.20 32.40-10.36L32.40-10.36Q32.40-12.56 33.18-14.52Q33.96-16.48 35.34-17.96Q36.72-19.44 38.60-20.32Q40.48-21.20 42.72-21.20L42.72-21.20Q44.96-21.20 46.86-20.32Q48.76-19.44 50.14-17.96Q51.52-16.48 52.30-14.52Q53.08-12.56 53.08-10.36L53.08-10.36Q53.08-8.20 52.32-6.24Q51.56-4.28 50.18-2.80Q48.80-1.32 46.90-0.46Q45 0.40 42.72 0.40ZM35.16-10.32L35.16-10.32Q35.16-8.56 35.76-7.06Q36.36-5.56 37.38-4.42Q38.40-3.28 39.78-2.64Q41.16-2 42.72-2L42.72-2Q44.28-2 45.66-2.66Q47.04-3.32 48.08-4.46Q49.12-5.60 49.72-7.12Q50.32-8.64 50.32-10.40L50.32-10.40Q50.32-12.12 49.72-13.66Q49.12-15.20 48.08-16.34Q47.04-17.48 45.66-18.14Q44.28-18.80 42.72-18.80L42.72-18.80Q41.16-18.80 39.80-18.14Q38.44-17.48 37.40-16.32Q36.36-15.16 35.76-13.62Q35.16-12.08 35.16-10.32Z M90.24-12.20L90.24 0L87.52 0L87.52-11.64Q87.52-15.28 86.36-17Q85.20-18.72 82.92-18.72L82.92-18.72Q81.72-18.72 80.66-18.28Q79.60-17.84 78.70-17.04Q77.80-16.24 77.12-15.14Q76.44-14.04 76.08-12.72L76.08-12.72L76.08 0L73.36 0L73.36-11.64Q73.36-15.36 72.24-17.04Q71.12-18.72 68.80-18.72L68.80-18.72Q66.44-18.72 64.60-17.08Q62.76-15.44 61.96-12.76L61.96-12.76L61.96 0L59.24 0L59.24-20.84L61.72-20.84L61.72-16.12Q63-18.52 65.08-19.86Q67.16-21.20 69.68-21.20L69.68-21.20Q72.32-21.20 73.90-19.72Q75.48-18.24 75.84-15.84L75.84-15.84Q78.76-21.20 83.88-21.20L83.88-21.20Q85.64-21.20 86.86-20.56Q88.08-19.92 88.82-18.74Q89.56-17.56 89.90-15.90Q90.24-14.24 90.24-12.20L90.24-12.20Z M106.60 0.40L106.60 0.40Q104.32 0.40 102.42-0.46Q100.52-1.32 99.12-2.82Q97.72-4.32 96.94-6.28Q96.16-8.24 96.16-10.48L96.16-10.48Q96.16-12.68 96.94-14.62Q97.72-16.56 99.10-18.02Q100.48-19.48 102.40-20.34Q104.32-21.20 106.56-21.20L106.56-21.20Q108.84-21.20 110.74-20.34Q112.64-19.48 114-18Q115.36-16.52 116.12-14.60Q116.88-12.68 116.88-10.52L116.88-10.52Q116.88-10.20 116.88-9.88Q116.88-9.56 116.84-9.44L116.84-9.44L99-9.44Q99.12-7.76 99.78-6.34Q100.44-4.92 101.48-3.88Q102.52-2.84 103.86-2.26Q105.20-1.68 106.72-1.68L106.72-1.68Q107.72-1.68 108.72-1.96Q109.72-2.24 110.56-2.72Q111.40-3.20 112.08-3.90Q112.76-4.60 113.12-5.44L113.12-5.44L115.48-4.80Q115-3.64 114.12-2.70Q113.24-1.76 112.08-1.06Q110.92-0.36 109.52 0.02Q108.12 0.40 106.60 0.40ZM98.96-11.52L114.28-11.52Q114.16-13.20 113.50-14.58Q112.84-15.96 111.82-16.96Q110.80-17.96 109.46-18.52Q108.12-19.08 106.60-19.08L106.60-19.08Q105.08-19.08 103.72-18.52Q102.36-17.96 101.34-16.96Q100.32-15.96 99.70-14.56Q99.08-13.16 98.96-11.52L98.96-11.52Z M144.68 0L135.04 0L135.04-28.40L144.68-28.40Q148.08-28.40 150.62-27.28Q153.16-26.16 154.86-24.24Q156.56-22.32 157.42-19.74Q158.28-17.16 158.28-14.24L158.28-14.24Q158.28-11 157.32-8.38Q156.36-5.76 154.58-3.90Q152.80-2.04 150.30-1.02Q147.80 0 144.68 0L144.68 0ZM155.48-14.24L155.48-14.24Q155.48-16.80 154.76-18.94Q154.04-21.08 152.66-22.64Q151.28-24.20 149.28-25.06Q147.28-25.92 144.68-25.92L144.68-25.92L137.84-25.92L137.84-2.48L144.68-2.48Q147.32-2.48 149.34-3.38Q151.36-4.28 152.72-5.86Q154.08-7.44 154.78-9.58Q155.48-11.72 155.48-14.24Z M173.68 0.40L173.68 0.40Q171.40 0.40 169.50-0.46Q167.60-1.32 166.20-2.82Q164.80-4.32 164.02-6.28Q163.24-8.24 163.24-10.48L163.24-10.48Q163.24-12.68 164.02-14.62Q164.80-16.56 166.18-18.02Q167.56-19.48 169.48-20.34Q171.40-21.20 173.64-21.20L173.64-21.20Q175.92-21.20 177.82-20.34Q179.72-19.48 181.08-18Q182.44-16.52 183.20-14.60Q183.96-12.68 183.96-10.52L183.96-10.52Q183.96-10.20 183.96-9.88Q183.96-9.56 183.92-9.44L183.92-9.44L166.08-9.44Q166.20-7.76 166.86-6.34Q167.52-4.92 168.56-3.88Q169.60-2.84 170.94-2.26Q172.28-1.68 173.80-1.68L173.80-1.68Q174.80-1.68 175.80-1.96Q176.80-2.24 177.64-2.72Q178.48-3.20 179.16-3.90Q179.84-4.60 180.20-5.44L180.20-5.44L182.56-4.80Q182.08-3.64 181.20-2.70Q180.32-1.76 179.16-1.06Q178.00-0.36 176.60 0.02Q175.20 0.40 173.68 0.40ZM166.04-11.52L181.36-11.52Q181.24-13.20 180.58-14.58Q179.92-15.96 178.90-16.96Q177.88-17.96 176.54-18.52Q175.20-19.08 173.68-19.08L173.68-19.08Q172.16-19.08 170.80-18.52Q169.44-17.96 168.42-16.96Q167.40-15.96 166.78-14.56Q166.16-13.16 166.04-11.52L166.04-11.52Z M188.32-10.48L188.32-10.48Q188.32-12.68 189.08-14.64Q189.84-16.60 191.22-18.06Q192.60-19.52 194.52-20.36Q196.44-21.20 198.76-21.20L198.76-21.20Q201.72-21.20 203.92-19.86Q206.12-18.52 207.24-16.24L207.24-16.24L204.60-15.40Q203.72-17 202.14-17.90Q200.56-18.80 198.64-18.80L198.64-18.80Q197.04-18.80 195.66-18.16Q194.28-17.52 193.26-16.42Q192.24-15.32 191.66-13.80Q191.08-12.28 191.08-10.48L191.08-10.48Q191.08-8.72 191.68-7.16Q192.28-5.60 193.32-4.46Q194.36-3.32 195.74-2.66Q197.12-2 198.68-2L198.68-2Q199.68-2 200.66-2.28Q201.64-2.56 202.48-3.06Q203.32-3.56 203.92-4.20Q204.52-4.84 204.76-5.56L204.76-5.56L207.44-4.76Q207.00-3.64 206.16-2.70Q205.32-1.76 204.18-1.06Q203.04-0.36 201.66 0.02Q200.28 0.40 198.80 0.40L198.80 0.40Q196.52 0.40 194.60-0.46Q192.68-1.32 191.28-2.82Q189.88-4.32 189.10-6.28Q188.32-8.24 188.32-10.48Z M222.00 0.40L222.00 0.40Q219.72 0.40 217.84-0.46Q215.96-1.32 214.58-2.80Q213.20-4.28 212.44-6.24Q211.68-8.20 211.68-10.36L211.68-10.36Q211.68-12.56 212.46-14.52Q213.24-16.48 214.62-17.96Q216.00-19.44 217.88-20.32Q219.76-21.20 222.00-21.20L222.00-21.20Q224.24-21.20 226.14-20.32Q228.04-19.44 229.42-17.96Q230.80-16.48 231.58-14.52Q232.36-12.56 232.36-10.36L232.36-10.36Q232.36-8.20 231.60-6.24Q230.84-4.28 229.46-2.80Q228.08-1.32 226.18-0.46Q224.28 0.40 222.00 0.40ZM214.44-10.32L214.44-10.32Q214.44-8.56 215.04-7.06Q215.64-5.56 216.66-4.42Q217.68-3.28 219.06-2.64Q220.44-2 222.00-2L222.00-2Q223.56-2 224.94-2.66Q226.32-3.32 227.36-4.46Q228.40-5.60 229.00-7.12Q229.60-8.64 229.60-10.40L229.60-10.40Q229.60-12.12 229.00-13.66Q228.40-15.20 227.36-16.34Q226.32-17.48 224.94-18.14Q223.56-18.80 222.00-18.80L222.00-18.80Q220.44-18.80 219.08-18.14Q217.72-17.48 216.68-16.32Q215.64-15.16 215.04-13.62Q214.44-12.08 214.44-10.32Z M248.92-20.92L248.92-18.44Q246.16-18.36 244.12-16.92Q242.08-15.48 241.24-12.96L241.24-12.96L241.24 0L238.52 0L238.52-20.84L241.08-20.84L241.08-15.84Q242.24-18.24 244.20-19.60Q246.16-20.96 248.40-20.96L248.40-20.96Q248.72-20.96 248.92-20.92L248.92-20.92Z"/></g>
</svg>
</g><g opacity="1" transform="rotate(0 43.5525 242.7507)">
<svg width="359.2884" height="60" x="43.5525" y="242.7507" version="1.1" preserveAspectRatio="none" viewBox="3.3984 -28.8281 177.1876 29.589799999999997">
  <g transform="matrix(1 0 0 1 0 0)" class="companyName"><path id="id-D6z1nYkh10" d="M36.39-27.99L38.11-27.87L38.36-27.87Q38.48-27.87 38.51-27.85Q38.54-27.83 38.58-27.82Q38.63-27.81 38.67-27.77L38.67-27.77Q38.77-27.70 38.95-27.60L38.95-27.60Q39.18-27.42 39.18-27.19Q39.18-26.95 38.72-26.22Q38.26-25.49 36.37-22.58L36.37-22.58Q31.99-15.88 28.54-10.16L28.54-10.16Q22.56-0.21 22.50-0.16Q22.44-0.10 22.42-0.04L22.42-0.04Q22.40 0.08 22.27 0.08L22.27 0.08L21.99 0.02L21.46 0.16L21.15 0.10L20.82 0.16L20.70 0.16L19.61 0.31Q18.63 0.31 18.63-0.35L18.63-0.35Q18.63-0.63 18.81-1.04L18.81-1.04Q19.41-2.46 24.90-11.41L24.90-11.41Q21.29-11.31 17.77-11.31L17.77-11.31L13.57-11.33Q12.54-9.67 10.74-6.62L10.74-6.62Q6.86 0.02 6.60 0.09Q6.35 0.16 6.19 0.16Q6.04 0.16 5.90-0.03Q5.76-0.21 5.71-0.21Q5.66-0.21 5.51-0.14Q5.35-0.06 5.06-0.06L5.06-0.06L4.61-0.08L4.43-0.20Q4.41-0.20 4.38-0.14Q4.36-0.08 4.24-0.08L4.24-0.08Q3.40-0.08 3.40-0.78L3.40-0.78Q3.40-1.25 3.73-2.01Q4.06-2.77 4.60-3.67Q5.14-4.57 7.37-7.92Q9.61-11.27 9.61-11.29L9.61-11.29Q9.24-11.31 8.75-11.33L8.75-11.33Q7.75-11.33 7.34-11.41L7.34-11.41Q6.23-11.60 5.82-13.24L5.82-13.24Q5.61-14.04 5.63-14.30L5.63-14.30Q5.63-14.82 6.07-14.82L6.07-14.82L6.58-14.69Q6.97-14.67 8.46-14.59Q9.94-14.51 10.59-14.51L10.59-14.51L11.70-14.55Q14.24-18.54 17.77-23.55L17.77-23.55Q15.20-21.45 12.05-21.45L12.05-21.45Q10.57-21.45 9.49-22.16Q8.42-22.87 8.42-23.96Q8.42-25.06 9.24-25.69Q10.06-26.33 10.80-26.33Q11.54-26.33 11.54-26.09L11.54-26.09Q11.54-26.02 11.34-25.92Q11.13-25.82 11.13-25.72L11.13-25.72Q11.13-25.41 11.82-25.17Q12.50-24.92 13.35-24.92Q14.20-24.92 15.45-25.42Q16.70-25.92 18.05-26.70L18.05-26.70Q19.92-27.79 21.02-28.52L21.02-28.52Q21.64-28.83 22.19-28.83Q22.73-28.83 22.98-28.70Q23.22-28.57 23.34-28.45Q23.46-28.32 23.59-28.12Q23.73-27.91 23.86-27.80Q23.98-27.70 23.98-27.56Q23.98-27.42 23.84-27.13Q23.69-26.84 22.34-24.76Q21.00-22.68 18.88-19.44Q16.76-16.21 15.78-14.69L15.78-14.69Q21.00-14.69 27.05-14.88L27.05-14.88Q34.41-26.50 34.82-27.07Q35.23-27.64 35.57-27.81Q35.90-27.99 36.39-27.99L36.39-27.99Z M44.47-14.88Q45.06-14.88 45.67-14.36Q46.29-13.83 46.29-12.74Q46.29-11.66 45.53-9.93Q44.77-8.20 43.44-6.42Q42.11-4.63 40.52-3.06Q38.93-1.48 37.08-0.48Q35.23 0.53 33.73 0.53Q32.23 0.53 31.32-0.42Q30.41-1.37 30.41-3.06Q30.41-4.75 31.24-6.80Q32.07-8.85 33.38-10.42Q34.69-11.99 36.21-13.24L36.21-13.24Q39.39-15.80 41.80-15.80L41.80-15.80Q42.87-15.80 43.42-15.27L43.42-15.27Q43.61-15.10 43.61-14.96L43.61-14.96L43.61-14.84Q43.89-14.88 44.47-14.88ZM42.50-12.29L42.50-12.29L42.36-12.29Q41.68-12.29 41.68-13.28L41.68-13.28Q40.25-12.81 38.69-11.64Q37.13-10.47 35.90-8.87L35.90-8.87Q33.40-5.66 33.36-3.46L33.36-3.46Q33.36-2.36 34.16-2.36Q34.96-2.36 36.54-3.42Q38.13-4.47 39.68-6.43Q41.23-8.38 42.00-9.81Q42.77-11.25 42.77-11.77Q42.77-12.29 42.50-12.29Z M45.86 0.12L45.86 0.12L44.90 0.08L44.55 0.08Q44.36 0.02 44.13-0.16Q43.91-0.33 43.79-0.41Q43.67-0.49 43.67-0.69Q43.67-0.90 43.83-1.41L43.83-1.41Q47.64-9.79 51.19-14.80L51.19-14.80Q51.58-15.35 52.45-15.63Q53.32-15.92 54.14-15.92L54.14-15.92Q54.63-15.92 54.63-15.16L54.63-15.16Q54.63-14.94 54.47-14.58Q54.32-14.22 53.69-13.40Q53.07-12.58 52.21-11.52Q51.35-10.47 51.23-10.31L51.23-10.31Q53.91-13.09 56.06-14.44Q58.22-15.80 59.19-15.80Q60.16-15.80 60.67-15.24Q61.19-14.69 61.19-14.05Q61.19-13.42 61.10-13.00Q61.02-12.58 60.78-12.12Q60.55-11.66 60.38-11.34Q60.21-11.02 59.82-10.50Q59.43-9.98 59.29-9.79Q59.14-9.59 58.68-9.04Q58.22-8.50 58.18-8.44L58.18-8.44Q58.73-8.98 59.71-10.06Q60.68-11.13 61.36-11.86Q62.03-12.58 63.05-13.49Q64.06-14.39 64.94-14.96L64.94-14.96Q67.05-16.29 69.22-16.29L69.22-16.29Q69.96-16.29 70.47-15.82Q70.98-15.35 70.98-14.70Q70.98-14.04 69.39-11.57Q67.81-9.10 66.24-6.61Q64.67-4.12 64.67-3.48L64.67-3.48Q64.67-2.58 65-2.41Q65.33-2.25 65.80-2.29Q66.27-2.32 67.12-2.89Q67.97-3.46 68.63-4.06L68.63-4.06Q69.71-5.04 70.63-5.96L70.63-5.96Q70.82-6.13 71.05-6.13L71.05-6.13Q71.43-6.13 71.50-5.57Q71.58-5 71.58-4.39Q71.58-3.79 71.46-3.55L71.46-3.55Q70.90-2.46 68.96-0.88Q67.03 0.70 65.25 0.70L65.25 0.70Q65.04 0.70 64.94 0.68L64.94 0.68Q62.93 0.49 62.16-0.42Q61.39-1.33 61.39-2.58Q61.39-3.83 62.24-5.61Q63.09-7.38 64.10-8.83Q65.12-10.27 65.97-11.44Q66.82-12.60 66.82-12.70Q66.82-12.79 66.66-12.79L66.66-12.79Q66.05-12.79 63.96-10.84L63.96-10.84Q60.39-7.50 57.79-4.39L57.79-4.39Q57.11-3.57 54.55-0.23L54.55-0.23Q54.26 0.16 53.62 0.16Q52.99 0.16 52.30-0.09Q51.62-0.33 51.62-0.72L51.62-0.72Q51.62-0.92 54.73-6.20Q57.83-11.48 57.83-11.96Q57.83-12.44 57.26-12.44Q56.68-12.44 54.88-10.72L54.88-10.72Q49.94-6.00 47.23-1.33L47.23-1.33Q47.05-1.05 46.54-0.47Q46.04 0.12 45.86 0.12Z M83.63-14.61L83.63-14.61Q83.63-13.32 82.59-12.34Q81.54-11.37 80.21-11.37L80.21-11.37Q79.79-11.37 79.65-11.57Q79.51-11.78 79.51-12.11Q79.51-12.44 79.59-12.75L79.59-12.75Q78.89-12.52 78.03-12.03Q77.17-11.54 75.92-10.59Q74.67-9.63 74.67-9.16L74.67-9.16Q74.67-9.00 75.13-9.00Q75.59-9.00 76.54-9.33Q77.50-9.65 77.88-9.65Q78.26-9.65 78.38-9.61L78.38-9.61Q78.63-9.47 78.93-9.01Q79.22-8.55 79.22-8.29Q79.22-8.03 78.71-7.60Q78.20-7.17 77.56-6.94Q76.91-6.72 76.70-6.60L76.70-6.60Q72.58-4.30 72.58-3.44L72.58-3.44Q72.58-1.91 75.18-1.91L75.18-1.91Q76.84-1.91 78.52-2.97L78.52-2.97Q79.94-3.87 81.08-4.79Q82.23-5.72 82.53-5.94Q82.83-6.15 82.99-6.15L82.99-6.15Q83.50-6.15 83.50-5.02Q83.50-3.89 83.36-3.53Q83.22-3.16 82.58-2.64L82.58-2.64Q78.40 0.76 74.67 0.76L74.67 0.76Q72.68 0.76 71.48 0.21L71.48 0.21Q69.30-0.78 69.30-2.83L69.30-2.83Q69.30-5.53 73.03-6.91L73.03-6.91Q72.29-7.25 72.07-7.76Q71.86-8.28 71.86-9.42Q71.86-10.57 72.92-11.85Q73.98-13.13 75.53-13.95L75.53-13.95Q78.96-15.80 81.66-15.80L81.66-15.80Q82.30-15.80 82.97-15.49Q83.63-15.18 83.63-14.61Z M99.38-19.14L99.38-19.14L98.96-19.20L98.89-19.20Q98.40-19.20 97.88-19.59Q97.36-19.98 97.36-20.98Q97.36-21.97 98.45-23.24Q99.53-24.51 101.39-25.58Q103.24-26.64 106.01-27.32Q108.77-28.01 111.84-28.01L111.84-28.01Q118.11-28.01 121.63-25.54Q125.16-23.07 125.16-19.12L125.16-19.12Q125.16-16.66 124.06-14.20Q122.97-11.74 121.13-9.66Q119.30-7.58 116.82-5.77Q114.34-3.96 111.62-2.70L111.62-2.70Q105.76 0 100.41 0L100.41 0Q97.77 0 97.09-0.43L97.09-0.43Q96.84-0.57 96.59-0.85Q96.35-1.13 96.21-1.23L96.21-1.23Q95.84-1.46 95.84-2.24Q95.84-3.01 96.00-3.63L96.00-3.63Q96.58-5.72 101.26-12.71Q105.94-19.69 109.08-23.96L109.08-23.96Q109.30-24.26 111.29-24.39L111.29-24.39Q112.11-24.39 112.42-24.28Q112.73-24.16 112.73-23.86Q112.73-23.55 111.72-22.14Q110.70-20.72 105.20-12.24Q99.69-3.75 99.69-3.52Q99.69-3.28 101.42-3.28Q103.14-3.28 105.67-4.01Q108.20-4.75 110.43-5.94Q112.66-7.13 114.69-8.70Q116.72-10.27 118.16-11.91L118.16-11.91Q121.33-15.51 121.33-18.30Q121.33-21.09 118.78-23.05Q116.23-25 111.80-25L111.80-25Q108.81-25 106.15-24.00Q103.50-23.01 102.50-22.23Q101.50-21.45 101.50-21.17L101.50-21.17Q101.50-21.02 101.74-21.02L101.74-21.02L102.58-21.17Q102.75-21.17 102.75-21.09Q102.75-21.02 102.42-20.82Q102.09-20.63 101.88-20.40Q101.68-20.18 100.86-19.68Q100.04-19.18 99.38-19.14Z M136.02-14.61L136.02-14.61Q136.02-13.32 134.97-12.34Q133.93-11.37 132.60-11.37L132.60-11.37Q132.17-11.37 132.03-11.57Q131.89-11.78 131.89-12.11Q131.89-12.44 131.97-12.75L131.97-12.75Q131.27-12.52 130.41-12.03Q129.55-11.54 128.30-10.59Q127.05-9.63 127.05-9.16L127.05-9.16Q127.05-9.00 127.51-9.00Q127.97-9.00 128.93-9.33Q129.88-9.65 130.26-9.65Q130.64-9.65 130.76-9.61L130.76-9.61Q131.02-9.47 131.31-9.01Q131.60-8.55 131.60-8.29Q131.60-8.03 131.09-7.60Q130.59-7.17 129.94-6.94Q129.30-6.72 129.08-6.60L129.08-6.60Q124.96-4.30 124.96-3.44L124.96-3.44Q124.96-1.91 127.56-1.91L127.56-1.91Q129.22-1.91 130.90-2.97L130.90-2.97Q132.32-3.87 133.47-4.79Q134.61-5.72 134.91-5.94Q135.21-6.15 135.37-6.15L135.37-6.15Q135.88-6.15 135.88-5.02Q135.88-3.89 135.74-3.53Q135.61-3.16 134.96-2.64L134.96-2.64Q130.78 0.76 127.05 0.76L127.05 0.76Q125.06 0.76 123.87 0.21L123.87 0.21Q121.68-0.78 121.68-2.83L121.68-2.83Q121.68-5.53 125.41-6.91L125.41-6.91Q124.67-7.25 124.45-7.76Q124.24-8.28 124.24-9.42Q124.24-10.57 125.30-11.85Q126.37-13.13 127.91-13.95L127.91-13.95Q131.35-15.80 134.04-15.80L134.04-15.80Q134.69-15.80 135.35-15.49Q136.02-15.18 136.02-14.61Z M147.98-4.34Q148.98-4.98 149.28-5.22Q149.57-5.47 149.96-5.80Q150.35-6.13 150.61-6.13L150.61-6.13Q151.00-6.13 151.00-5.24Q151.00-4.36 150.13-3.33Q149.26-2.30 147.97-1.59Q146.68-0.88 145.21-0.35L145.21-0.35Q142.30 0.72 140.26 0.72Q138.22 0.72 136.58-0.62Q134.94-1.95 134.94-4.11Q134.94-6.27 136.02-8.43Q137.09-10.59 138.78-12.22Q140.47-13.85 142.71-14.86Q144.94-15.88 147.13-15.88L147.13-15.88Q148.18-15.88 149.02-15.27Q149.86-14.67 149.86-13.61Q149.86-12.56 148.82-11.08Q147.77-9.61 146.70-9.61L146.70-9.61Q145.45-9.61 145.45-10.80L145.45-10.80Q145.45-11.11 146.04-11.91Q146.62-12.71 146.62-13.00Q146.62-13.28 146.41-13.28L146.41-13.28Q145.33-13.28 144.10-12.54Q142.87-11.80 141.87-10.98Q140.86-10.16 139.96-9.14L139.96-9.14Q138.01-6.93 138.01-4.55L138.01-4.55Q138.01-3.59 138.62-2.90Q139.24-2.21 140.69-2.21Q142.15-2.21 143.61-2.55Q145.08-2.89 146.03-3.29Q146.97-3.69 147.98-4.34Z M163.13-14.88Q163.71-14.88 164.33-14.36Q164.94-13.83 164.94-12.74Q164.94-11.66 164.18-9.93Q163.42-8.20 162.09-6.42Q160.76-4.63 159.17-3.06Q157.58-1.48 155.73-0.48Q153.89 0.53 152.38 0.53Q150.88 0.53 149.97-0.42Q149.06-1.37 149.06-3.06Q149.06-4.75 149.89-6.80Q150.72-8.85 152.03-10.42Q153.34-11.99 154.86-13.24L154.86-13.24Q158.05-15.80 160.45-15.80L160.45-15.80Q161.52-15.80 162.07-15.27L162.07-15.27Q162.27-15.10 162.27-14.96L162.27-14.96L162.27-14.84Q162.54-14.88 163.13-14.88ZM161.15-12.29L161.15-12.29L161.02-12.29Q160.33-12.29 160.33-13.28L160.33-13.28Q158.91-12.81 157.34-11.64Q155.78-10.47 154.55-8.87L154.55-8.87Q152.05-5.66 152.01-3.46L152.01-3.46Q152.01-2.36 152.81-2.36Q153.61-2.36 155.20-3.42Q156.78-4.47 158.33-6.43Q159.88-8.38 160.65-9.81Q161.43-11.25 161.43-11.77Q161.43-12.29 161.15-12.29Z M171.72-11.88L170.90-10.64Q175.51-15.88 178.75-15.88L178.75-15.88Q179.55-15.88 180.07-15.40Q180.59-14.92 180.59-14.16Q180.59-13.40 179.50-11.61Q178.42-9.82 177.50-8.59L177.50-8.59Q177.01-7.97 176.40-7.97Q175.78-7.97 175.44-8.42Q175.10-8.87 175.10-9.47L175.10-9.47Q175.10-10.82 176.54-12.52L176.54-12.52L176.50-12.56Q175.86-12.50 173.31-10.02Q170.76-7.54 168.97-5.58Q167.19-3.61 165.10-0.80L165.10-0.80Q164.49 0.04 164.07 0.04Q163.65 0.04 162.96-0.22Q162.27-0.49 162.12-0.61Q161.97-0.72 161.97-1.00Q161.97-1.27 162.13-1.63Q162.29-1.99 162.71-2.66Q163.13-3.32 163.97-4.80Q164.82-6.29 166.62-9.30Q168.42-12.30 168.77-12.93L168.77-12.93Q169.51-14.22 169.98-14.80L169.98-14.80Q170.86-15.92 172.95-15.92L172.95-15.92Q173.42-15.92 173.42-15.33L173.42-15.33Q173.42-14.41 171.72-11.88L171.72-11.88Z"/></g>
</svg>
</g><g opacity="1" transform="rotate(0 151.339 124.6158)">
<svg width="143.7154" height="88.1349" x="151.339" y="124.6158" version="1.1" preserveAspectRatio="none" viewBox="9.5 44.50000762939453 181 111.00000762939453">
  <g transform="matrix(1 0 0 1 0 0)"><g><path d="M57.1 73.5c.1.1.2.2.2.4-.1.1-.3.2-.4.2-.1 0-.1 0-.2-.1l-15.1 26L24 130.4c.3.1.8.2.8.6 0 .3-.3.5-.6.6-.3-.1-.5-.3-.6-.5L9.5 155.5h52.3L94 100l.7-1.2c-.3 0-.5-.1-.5-.3.2-.6.8-.9 1.3-1.2l4.1-7.1c-.1 0-.2-.1-.4-.1.2-.1.3-.1.5-.1l.2-.4-26-45.1-16.8 29zm-35.1 77c-.7.4-1 1.4-2.3.9-.1 0-.7.5-.8-.3 0-.9.6-.6 1.1-.5.6 0 1.1 0 1.4-.5.1-.2.4-.4.6-.1.2.1.3.3 0 .5zm.9-.8c-.2 0-.4-.2-.4-.4 0-.4.3-.3.5-.4.4-.1.2.2.2.3.1.3.1.6-.3.5zm1.4-8.8c-.1 0-.2-.1-.3-.2-.1-.2.1-.4.3-.4.1 0 .2.1.2.1.1.4 0 .5-.2.5zm.6 10.6c-.2 0-.3-.1-.3-.3s.1-.4.3-.4c.2 0 .4 0 .4.2s-.2.4-.4.5zm1.1 1c-.2-.1-.5-.3-.4-.6 0-.2.2-.6.4-.5.4.1.4.5.5.8 0 .1-.2.3-.5.3zm0-2.4c.3-.3.6-.2.8.1.1.2.1.5-.2.5-.5.2-.4-.3-.6-.6 0 .1 0 0 0 0-.1-.4-.5-.3-.7-.5-.2-.3-1 .1-.7-.7.2-.4 1.7-.9 2-.6.4.3.2.7-.1 1.1-.1.2-.3.5-.5.7zm2 2.8c-.2.1-.1.6-.5.6-.3 0-.5-.2-.4-.5 0-.3.3-.5.6-.5.2 0 .4.1.3.4zm5-13.6c.2-.4.7-.6.9-.6.4.1.9.5.9.8.1.3-.5.5-.9.4-.3-.1-.7-.2-.9-.6zm1.1 12.4c-.2-.1-.5-.1-.4-.4.1-.3.2-.6.7-.6.3 0 .6.1.5.4-.1.3-.5.5-.8.6zm29.1-64.2c.3.1.5.3.9.5-.5 0-.9.3-1.2-.2-.1-.3-.6-.4-.3-.8.1-.1.2-.2.3-.2.4.1.1.4.3.7zm0-12c.3 0 .5.3.4.5 0 .2-.2.4-.5.4-.2-.1-.5-.2-.5-.5.1-.2.3-.4.6-.4zm-1.3 10.4c.1-.3.4-.6.7-.7.4-.1.3.3.4.5.1.5-.3.4-.5.5-.4 0-.7 0-.6-.3zm-.6-15.2c.3 0 .3.2.3.4 0 .3-.2.5-.4.5-.1 0-.3-.3-.3-.4 0-.4.2-.5.4-.5zm-5.6 9.1c.1 0 .4.2.3.5-.3.3-.4.8-.9.9-.3 0-.4-.4-.4-.5.2-.5.4-.9 1-.9zm.3 6.7c-.2.4-.5.5-.8.5s-.6-.1-.5-.4c.1-.2.4-.6.7-.5.3 0 .6.1.6.4zm-4.8-2c.3 0 .3.2.3.4s-.1.4-.4.3c-.2 0-.3-.2-.3-.4 0-.3.2-.3.4-.3zm-7.8 49.3c0 .2-.2.3-.3.4-.3 0-.4-.1-.4-.3s.1-.4.3-.4.5 0 .4.3zm.1-9.4c-.3 0-.3-.2-.3-.4s-.1-.5.2-.5.3.3.4.5c0 .2-.1.3-.3.4zm4.9 25.4c-.2 0-.4-.1-.4-.3 0-.1 0-.4.2-.4.3 0 .4.2.5.4 0 .2-.2.2-.3.3zm.2-46.4c-.2 0-.4-.2-.3-.4 0-.1.2-.2.3-.3.1.1.1.2.2.3-.1.2 0 .5-.2.4zm1.7-1.4c-.4 0-.6-.4-.7-.8 0-.3.3-.3.5-.4.4 0 .7.1.7.5s-.2.7-.5.7zm1.4-5.8c-.7-.7-2.1-.6-2.1-2.1.5.9 2.6.1 2.1 2.1zm1-10.5c-.4-.1-.5-.4-.6-.7-.1-.2-.1-.5.3-.5s.6.1.7.5c0 .3-.2.5-.4.7zm.6-4.9c-.5-.5.2-.7.2-1.1.4.4.4.8.2 1.2 0 0-.3 0-.4-.1zm.9 21.9c-.4-.1-.4-.4-.5-.7 0-.4.3-.6.6-.7s.4.3.4.4c0 .5-.2.8-.5 1zm2.3-4.6c-.6.6-.7 1.4-1.2 2-.1.1-.2.1-.3.1-.7 0-.6-.6-.4-.8.4-.6.9-1.2 1.4-1.7.1-.1.4-.2.4-.1.1.2.2.5.1.5zm-.2-5.1c.3-.4.1-1.1.5-1.1.5 0 .7.5.8 1.1h-1.3zm1.9-10.3c-.3 0-.3-.2-.4-.4 0-.2.1-.4.3-.4.2.1.4.2.4.4.1.3-.1.4-.3.4zm1.1 2.6c0-.4.1-.7.4-.8.5-.1.6.4.7.7.1.4-.3.5-.5.7-.4 0-.6-.2-.6-.6zm.8 62c-.3 0-.4-.3-.4-.5-.1-.4.2-.3.4-.3s.5-.1.5.2-.3.4-.5.6zm.1-39.4c-.3-.2-.5-.5-.6-.9 0-.2.2-.5.5-.5.5.1.5.4.5.8s-.1.6-.4.6zm.2-35.3c.1-.2.1-.5.4-.4.2 0 .4.2.3.5-.1.2-.2.3-.4.4-.1-.1-.4-.2-.3-.5zm.9 17.7c-.6-.8 0-1.2.4-1.7.2-.2.5-.1.5.2.2.8-.6.9-.9 1.5zm.6 14.8c0-.2.1-.3.3-.3.3 0 .7.2.6.6 0 .2-.2.4-.4.5-.2-.2-.5-.3-.5-.8zm5.2 12.4c-.2.3-.3.8-.8.7-1-.2-1.9-.5-3.1-.8.3-.2.4-.2.4-.2.3-.2.9.3 1-.4 0-.2-.1-.4-.2-.3-.4.1-1-.4-1.3.3-.1.3-.1.5-.5.3-.3-.2-.1-.4-.1-.6.4-1 1.1-.9 1.9-.6.8.3 1.3 1.2 2.3 1.2.3-.1.6.1.4.4zm-.5-46.3c-.4 0-.8-.2-.8-.6s.5-.4.8-.4.7 0 .8.5c-.2.3-.5.5-.8.5zm1.1-14.3c0-.6-.1-.9-.1-1.2.4.3.4.6.1 1.2zm.8 12.4c-.1 0-.3-.3-.3-.4.3-.4.7-.5 1.2-.4-.2.5-.3 1-.9.8zm.8 7.5c0 .5.3.9.8 1.3-1.5.1-.8-.8-.8-1.3zm.2 25.7c-.2-1.1.8-.8 1.1-1.2 0 .8-.6.9-1.1 1.2zm2-20.7c.1 0 .1.2.1.3 0 .1 0 .3-.2.3-.2-.1-.3-.2-.3-.4.1-.2.3-.3.4-.2zm.3 37.8c-.3.1-.4-.1-.4-.4 0-.2.1-.4.4-.3.2 0 .3 0 .3.5.1 0-.1.1-.3.2zm-.6-18.6c.2-.5.5-.5 1.1-.3-.3.2-.6.5-1.1.3zm.9-23.1c-.1-.1-.3-.3-.3-.4 0-.2.2-.3.4-.3s.3.1.3.3c0 .2-.1.4-.4.4zm1.5 28.5c-.2 0-.6-.4-.6-.7 0-.4.3-.7.7-.6.3 0 .5.2.5.6-.1.3-.3.8-.6.7zm-.3-21.2c0-.2.2-.3.4-.4.1.1.3.2.3.3.1.2 0 .4-.3.4-.2 0-.5 0-.4-.3zm.5 26.8c.1-.2.2-.4.4-.4s.2.2.2.4c0 .3-.2.3-.3.5-.1-.2-.2-.3-.3-.5zm.8 7.1c-.2 0-.4 0-.4-.3 0-.2.1-.4.3-.4.2 0 .4.1.4.3.1.3 0 .4-.3.4zm.8-10c-.3-.4-.3-.7 0-1h.2c.2.3.2.7-.2 1zm5.8 3.8c-.2.6-1 .6-1.4 1-.4 0-.6-.1-.5-.4.2-.6.7-.9 1.3-1 .1-.2.7.1.6.4zm.6-3.5c-.1-.1-.1-.3 0-.4.6-.4 1 0 1.5.3-.5.3-1 .6-1.5.1zm4.5-3.4c-.3-.8-.3-1.4.1-2 .8.7.3 1.2-.1 2zm6-18.8c.1-.5.5-.6.9-.6.3 0 1-.4 1 .5.3.2.6-.5.8 0 .1.3-.1.6-.4.8-1 .9-1.5 0-2.2-.4-.2-.1-.1-.2-.1-.3zm-4.9 14.6c.1-.6.4-1 1-1 .8 0 .6.8.4 1-.6 1-.1 2 0 3 .4.1.7.1 1.2.2-.4.8-.7 1.6-1.5 2.5.1-1.1.2-1.9.2-2.7v-.1c-.7-.8-1.5-1.6-1.3-2.9zm-1-1.7c.2 0 .6 0 .7.5 0 .3 0 .6-.3.9-.3-.2-.6-.4-.6-.8-.2-.3 0-.6.2-.6zm-.1 3c.1 0 .2.1.2.2 0 .2-.1.3-.3.3 0-.1-.1-.2-.1-.3 0-.1 0-.3.2-.2zm-2.6 11.4c.2 0 .4.1.4.3 0 .1-.2.3-.3.3-.2 0-.3-.1-.3-.3.1-.1 0-.3.2-.3zm-.4-15.4c.2.8 0 1.3-.9 3.2-.9-1.1-.6-2 .9-3.2zm-1.8-38c0-.2.2-.3.4-.2.3.1.3.2.2.4-.1.1-.1.3-.4.3-.2-.1-.2-.3-.2-.5zm.6 42.8c.3.1.5.3.5.6s-.3.6-.4.5c-.3-.1-.4-.4-.6-.7 0-.3.2-.5.5-.4zm-.9 1.9c0 .4-.3.5-.7.5-.4 0-.5-.1-.5-.5s.1-.5.5-.5.7.1.7.5zM79.5 60c.4.1.8.3.8.8 0 .2-.1.4-.4.4-.3-.1-.7-.3-.8-.7-.1-.4.2-.6.4-.5zm-.9 6.6c.2 0 .5 0 .4.3-.1.2-.2.4-.5.5-.2-.1-.6-.3-.5-.4-.1-.3.3-.4.6-.4zm-.5 37.3c.2 0 .4.3.4.5s-.1.4-.4.4c-.2 0-.4-.2-.4-.4 0-.3.2-.5.4-.5zm-.8-36.6c.2 0 .3.1.3.3l-.2.2-.3-.3c.1-.1.1-.2.2-.2zm-.3 38.8c0 .3-.3.5-.4.4-.2-.1-.4-.3-.4-.6 0-.2.2-.4.4-.3.3 0 .4.2.4.5zM75.2 50c.7.2 1.1.7 1.5 1.2.1.1-.4.6-.6.6-.6-.2-1-.8-1.3-1.2-.1-.5.2-.7.4-.6zm.3 3.2c0 .2-.1.4-.3.4-.3 0-.5-.3-.4-.5 0-.2.2-.3.4-.5 0 .2.2.4.3.6zm-1 21.2c.1-.4.4-.5.8-.5.3 0 .5.2.4.5s-.5.4-.6.5c-.6 0-.7-.2-.6-.5zm.2 3.6c.6.3.5.5-.5 1.2-.6.1-.7-.3-.9-.6-.2-.4.3-.4.4-.6.4-.5.7-.2 1 0z" data-color="1" class="icon1"></path><path d="M190.5 155.5l-11.4-19.7-.6.9c-.4-.7-.7-1.3-1-1.9-.3-.5-.3-.9.3-1.3l-.5-.9c-.6-.4-1.1-1-1.9-1-.3 0-.3-.2-.2-.4.1-.6.5-.4.9-.4h.2l-18-30.8-11.9-20.6c-.3.1-.4-.2-.6-.4-.3-.3-.1-.4.1-.5l-14.2-24.6c-.1.1-.2.1-.4.2-.3.1-.6-.1-.8-.6.3-.1.5-.3.7-.4l-5-8.6-2.4 4.1v.1c0 .2-.2.4-.4.5l-14.1 24.2c.3 0 .4.2.4.5 0 .2-.1.3-.3.3-.1-.1-.3-.2-.4-.3l-.6 1c0 .2-.1.3-.2.4L100 89.6l.3.5.6 1.1-2.8 4.8h.2c.2 0 .3.1.3.3 0 .3-.1.5-.4.5-.2 0-.3-.1-.3-.3l-34.2 59h11.7v-.3c0-.1.2-.4.4-.4.4 0 .2.3.3.5v.2h75.2c.1-.1.1-.2.3-.1.1 0 .1.1.2.1h6.7c.1-.1.2-.2.4-.2s.3 0 .3.2h1c-.7-.4-1.7-1.1-1.7-1.4 0-.2.1-.4.2-.5.3-.2.3 0 .5.1.5.4 1.1.7 1.7 1 .4.2.4.5.3.7h29.3v.1zM80.3 142.4c-.1 0-.1-.2-.2-.3.1-.1.2-.2.3-.2.2 0 .3.1.3.3-.1.3-.2.3-.4.2zm7.7-21.5c.3 0 .5 0 .6.4-.1.1-.2.3-.4.3-.3.1-.4-.2-.5-.4-.2-.3.1-.3.3-.3zm.5 33.1c-.3-.3-.7-.5-.7-.9 0-.3.2-.6.5-.5.4 0 .7.3.7.7 0 .2-.3.4-.5.7zm.9-11.4c-.3-.1-.4-.4-.3-.7-.1-.3.1-.6.3-.6.4 0 .4.4.4.7.1.3-.1.7-.4.6zm3-33.4c-.2 0-.4-.2-.3-.4.1-.2.2-.4.4-.3.1 0 .2.2.2.3-.1.1 0 .4-.3.4zm.9 1.1c-.1-.1-.4 0-.3-.2 0-.1.1-.2.2-.2.2-.1.3 0 .3.2.2.2 0 .2-.2.2zm1.4 19.9c-.5 0-.2-.6-.5-.6.1-.5.3-.6.7-.6.4 0 .5.2.5.5 0 .4-.2.7-.7.7zm.5-18.1c0-.5-.2-.9.4-1 .2 0 .3 0 .3.2 0 .5-.2.7-.7.8zm1 38.6c-.2 0-.4-.3-.3-.5 0-.4.2-.6.4-.6s.4.3.3.6c0 .2-.1.5-.4.5zm1.3-17.2c-.4-.4-.4-.7-.2-1h.3c.1.3.1.6-.1 1zm2.3-3.1c.1.2.3.3.3.5.1.2 0 .3-.2.3s-.5.1-.4-.2c0-.2.1-.4.3-.6zm-1.3 8.7c.5 1.1 1.7-.1 2.4.7-.9-.3-2 .5-2.4-.7zm2-13c-.2.1-.3-.2-.3-.4 0-.3.2-.5.4-.5.2-.1.3.2.3.4.1.3-.1.5-.4.5zm19.8-70.7c.3 0 .6.2.6.5 0 .2-.2.3-.4.4-.2-.1-.5-.1-.5-.4s.1-.5.3-.5zm-19 37.1c.2.8.2 1.4 0 2.3-.2-.9-.1-1.5 0-2.3zm.6 18.8c-.4-.4-.6-.7-.2-1.1.1-.1.3-.2.4 0 .3.4-.1.7-.2 1.1zm0-1.8c-.6-.5-.7-1-.2-1.5.2-.2.4-.2.5 0 .5.6-.2 1-.3 1.5zm9.4 7.1c-.2 0-.3-.2-.3-.3 0-.1 0-.3.2-.3s.3.2.3.3 0 .3-.2.3zm4.3 24.7c-.1.1-.3.2-.3.2 0-.5.1-.7.3-.7.2 0 .4-.1.4.2.1.1-.2.2-.4.3zm2.8.6c-.2 0-.3-.1-.3-.3 0-.3 0-.5.4-.5.1 0 .3 0 .4.2-.1.4-.3.5-.5.6zm.2-7.5c.9.5 1.5.9 1.7 1.9-1-.2-1.5-.8-1.7-1.9zm2 3.9c-.5.2-.9.2-1.6.1.6-.3 1-.2 1.6-.1zm-.8 1.5c.1 0 .3.1.4.2.1.2-.1.4-.2.4-.2 0-.3-.1-.4-.2-.2-.2 0-.4.2-.4zm.1 2.4c-.3 0-.4-.2-.4-.4 0-.3.3-.4.5-.4.3 0 .3.2.3.5s-.2.3-.4.3zm.9 2c-.5-.5-.5-1-.2-1.5.2-.2.4-.2.5 0 .5.6-.1.9-.3 1.5zm5 .3c-.3 0-.5-.3-.6-.5.1-.3.2-.5.5-.5s.7.2.7.5c0 .2-.3.5-.6.5zm.4-5.1c-.3 0-.5-.2-.5-.4-.1-.3.2-.5.4-.5s.4.3.5.5c0 .2-.2.4-.4.4zm1.6 15.3c-.3 0-.4-.1-.5-.3 0-.2.1-.4.4-.4.2 0 .5 0 .4.3 0 .1-.2.3-.3.4zm1.5-11.4c-.4-.1-.5-.4-.4-.8 0-.1.3-.1.3-.1.4.3.3.6.1.9zm.7-1.2c-.2-.1-.4-.3-.4-.6 0-.2 0-.4.3-.3.3 0 .4.3.5.5 0 .3-.2.5-.4.4zm3.6 9.3c-.4.1-.4-.4-.6-.5 0-.5.3-.5.5-.6.5-.2.5.3.6.6.1.3-.3.5-.5.5zm15.2 1.9c.3.3.6.6.7 1 .1.3-.3.6-.7.5s-.8-.2-1-.6c.4-.4.7-.7 1-.9h-1.4c0 .1-.1.1-.1.2 0-.1-.1-.1-.1-.2h-9.7l-36-62.1 22.6-38.9c-.2 0-.3-.2-.3-.4 0-.4.1-.8.6-.8.1 0 .2 0 .3.1l1.3-2.3L149.4 89c.3 0 .4.2.4.5v.2l6.5 11.2c-.1-.5.7-.7.8-1.3.2.8 1.3.9.7 1.7-.1.1-.7.6-1.2.1 0 0 0-.1-.1-.1l30.2 52.1h-37.9v-.1z" data-color="1" class="icon1"></path></g></g>
</svg>
</g></svg></svg>