<svg version="1.1" preserveAspectRatio="none" xmlns="http://www.w3.org/2000/svg" width="500" height="500" viewBox="0 0 500 500"><rect width="100%" height="100%" fill="#C8E3DF" fill-opacity="1"/><svg viewBox="163.45 254 469.1392 118" width="333" height="83.75765657612922" x="83.5px" y="208.1212px" xmlns="http://www.w3.org/2000/svg" xmlns:xlink="http://www.w3.org/1999/xlink" preserveAspectRatio="none"><defs></defs><style>.aLgOaV3zRcolors-3 {fill:#AA8D6C;fill-opacity:1;}.aLgOaV3zRcolors-4 {fill:#75624D;fill-opacity:1;}.aLgOaV3zRcolors-5 {fill:#3437A2;fill-opacity:1;}.aLgOaV3zRcolors-6 {fill:#1B1E79;fill-opacity:1;}.aLgOaV3zRcolors-7 {fill:#1B4A79;fill-opacity:1;}.icon1 {fill:#559092;fill-opacity:1;}.icon2 {fill:#FBFBFB;fill-opacity:1;}.icon3 {fill:#185759;fill-opacity:1;}.icon3-str {stroke:#185759;stroke-opacity:1;}</style><g opacity="1" transform="rotate(0 316.1269 354)">
<svg width="163.7854" height="18" x="316.1269" y="354" version="1.1" preserveAspectRatio="none" viewBox="2.48 -28.32 260.59999999999997 28.64">
  <g transform="matrix(1 0 0 1 0 0)" class="icon3"><path id="id-6izo4zJp10" d="M12.68-27.60Q12.68-28 13.08-28L13.08-28L16.12-28Q16.52-28 16.52-27.60L16.52-27.60L16.52-0.40Q16.52 0 16.12 0L16.12 0L13.08 0Q12.68 0 12.68-0.40L12.68-0.40L12.68-12.20Q12.68-12.36 12.52-12.36L12.52-12.36L6.48-12.36Q6.32-12.36 6.32-12.20L6.32-12.20L6.32-0.40Q6.32 0 5.92 0L5.92 0L2.88 0Q2.48 0 2.48-0.40L2.48-0.40L2.48-27.60Q2.48-28 2.88-28L2.88-28L5.92-28Q6.32-28 6.32-27.60L6.32-27.60L6.32-15.84Q6.32-15.68 6.48-15.68L6.48-15.68L12.52-15.68Q12.68-15.68 12.68-15.84L12.68-15.84L12.68-27.60Z M38.20 0.32Q34.92 0.32 32.92-1.68Q30.92-3.68 30.92-7L30.92-7L30.92-20.96Q30.92-24.28 32.92-26.30Q34.92-28.32 38.20-28.32L38.20-28.32Q41.52-28.32 43.54-26.30Q45.56-24.28 45.56-20.96L45.56-20.96L45.56-7Q45.56-3.68 43.54-1.68Q41.52 0.32 38.20 0.32L38.20 0.32ZM38.20-3Q39.80-3 40.76-4.06Q41.72-5.12 41.72-6.84L41.72-6.84L41.72-21.16Q41.72-22.88 40.76-23.94Q39.80-25 38.20-25L38.20-25Q36.64-25 35.70-23.94Q34.76-22.88 34.76-21.16L34.76-21.16L34.76-6.84Q34.76-5.12 35.70-4.06Q36.64-3 38.20-3L38.20-3Z M60.32 0Q59.92 0 59.92-0.40L59.92-0.40L59.92-27.60Q59.92-28 60.32-28L60.32-28L63.36-28Q63.68-28 63.80-27.68L63.80-27.68L67.88-17.96Q67.92-17.88 68-17.88Q68.08-17.88 68.12-17.96L68.12-17.96L72.28-27.68Q72.40-28 72.72-28L72.72-28L75.76-28Q76.16-28 76.16-27.60L76.16-27.60L76.16-0.40Q76.16 0 75.76 0L75.76 0L72.72 0Q72.32 0 72.32-0.40L72.32-0.40L72.32-18.52Q72.32-18.64 72.26-18.64Q72.20-18.64 72.12-18.56L72.12-18.56L68.40-10.64Q68.28-10.36 68.08-10.36L68.08-10.36Q67.80-10.36 67.68-10.64L67.68-10.64L63.96-18.60Q63.88-18.68 63.82-18.68Q63.76-18.68 63.76-18.56L63.76-18.56L63.76-0.40Q63.76 0 63.36 0L63.36 0L60.32 0Z M104.24-25.08Q104.24-24.68 103.84-24.68L103.84-24.68L94.84-24.68Q94.68-24.68 94.68-24.52L94.68-24.52L94.68-15.84Q94.68-15.68 94.84-15.68L94.84-15.68L100.36-15.68Q100.76-15.68 100.76-15.28L100.76-15.28L100.76-12.76Q100.76-12.36 100.36-12.36L100.36-12.36L94.84-12.36Q94.68-12.36 94.68-12.20L94.68-12.20L94.68-3.48Q94.68-3.32 94.84-3.32L94.84-3.32L103.84-3.32Q104.24-3.32 104.24-2.92L104.24-2.92L104.24-0.40Q104.24 0 103.84 0L103.84 0L91.24 0Q90.84 0 90.84-0.40L90.84-0.40L90.84-27.60Q90.84-28 91.24-28L91.24-28L103.84-28Q104.24-28 104.24-27.60L104.24-27.60L104.24-25.08Z M136.52 0Q136.12 0 136.12-0.40L136.12-0.40L136.12-27.60Q136.12-28 136.52-28L136.52-28L143.08-28Q146.40-28 148.36-25.96Q150.32-23.92 150.32-20.44L150.32-20.44L150.32-7.56Q150.32-4.08 148.36-2.04Q146.40 0 143.08 0L143.08 0L136.52 0ZM139.96-3.48Q139.96-3.32 140.12-3.32L140.12-3.32L143.04-3.36Q144.56-3.36 145.48-4.54Q146.40-5.72 146.44-7.76L146.44-7.76L146.44-20.24Q146.44-22.28 145.52-23.48Q144.60-24.68 143.04-24.68L143.04-24.68L140.12-24.68Q139.96-24.68 139.96-24.52L139.96-24.52L139.96-3.48Z M178.04-25.08Q178.04-24.68 177.64-24.68L177.64-24.68L168.64-24.68Q168.48-24.68 168.48-24.52L168.48-24.52L168.48-15.84Q168.48-15.68 168.64-15.68L168.64-15.68L174.16-15.68Q174.56-15.68 174.56-15.28L174.56-15.28L174.56-12.76Q174.56-12.36 174.16-12.36L174.16-12.36L168.64-12.36Q168.48-12.36 168.48-12.20L168.48-12.20L168.48-3.48Q168.48-3.32 168.64-3.32L168.64-3.32L177.64-3.32Q178.04-3.32 178.04-2.92L178.04-2.92L178.04-0.40Q178.04 0 177.64 0L177.64 0L165.04 0Q164.64 0 164.64-0.40L164.64-0.40L164.64-27.60Q164.64-28 165.04-28L165.04-28L177.64-28Q178.04-28 178.04-27.60L178.04-27.60L178.04-25.08Z M198.56 0.32Q195.32 0.32 193.34-1.66Q191.36-3.64 191.36-6.92L191.36-6.92L191.36-21.12Q191.36-24.40 193.34-26.36Q195.32-28.32 198.56-28.32L198.56-28.32Q201.84-28.32 203.82-26.36Q205.80-24.40 205.80-21.12L205.80-21.12L205.80-20.48Q205.80-20.08 205.40-20.08L205.40-20.08L202.36-19.92Q201.96-19.92 201.96-20.32L201.96-20.32L201.96-21.36Q201.96-23 201.02-24Q200.08-25 198.56-25L198.56-25Q197.04-25 196.12-24Q195.20-23 195.20-21.36L195.20-21.36L195.20-6.64Q195.20-5 196.12-4Q197.04-3 198.56-3L198.56-3Q200.08-3 201.02-4Q201.96-5 201.96-6.64L201.96-6.64L201.96-7.68Q201.96-8.08 202.36-8.08L202.36-8.08L205.40-7.92Q205.80-7.92 205.80-7.52L205.80-7.52L205.80-6.92Q205.80-3.64 203.82-1.66Q201.84 0.32 198.56 0.32L198.56 0.32Z M226.72 0.32Q223.44 0.32 221.44-1.68Q219.44-3.68 219.44-7L219.44-7L219.44-20.96Q219.44-24.28 221.44-26.30Q223.44-28.32 226.72-28.32L226.72-28.32Q230.04-28.32 232.06-26.30Q234.08-24.28 234.08-20.96L234.08-20.96L234.08-7Q234.08-3.68 232.06-1.68Q230.04 0.32 226.72 0.32L226.72 0.32ZM226.72-3Q228.32-3 229.28-4.06Q230.24-5.12 230.24-6.84L230.24-6.84L230.24-21.16Q230.24-22.88 229.28-23.94Q228.32-25 226.72-25L226.72-25Q225.16-25 224.22-23.94Q223.28-22.88 223.28-21.16L223.28-21.16L223.28-6.84Q223.28-5.12 224.22-4.06Q225.16-3 226.72-3L226.72-3Z M259.60 0Q259.24 0 259.12-0.32L259.12-0.32L255.40-12.32Q255.36-12.44 255.24-12.44L255.24-12.44L252.48-12.44Q252.32-12.44 252.32-12.28L252.32-12.28L252.32-0.40Q252.32 0 251.92 0L251.92 0L248.88 0Q248.48 0 248.48-0.40L248.48-0.40L248.48-27.64Q248.48-28.04 248.88-28.04L248.88-28.04L256.04-28.04Q258.08-28.04 259.64-27.04Q261.20-26.04 262.06-24.22Q262.92-22.40 262.92-20.08L262.92-20.08Q262.92-17.56 261.86-15.70Q260.80-13.84 259-13.04L259-13.04Q258.88-12.92 258.92-12.80L258.92-12.80L263.04-0.44L263.08-0.28Q263.08 0 262.72 0L262.72 0L259.60 0ZM252.48-24.72Q252.32-24.72 252.32-24.56L252.32-24.56L252.32-15.60Q252.32-15.44 252.48-15.44L252.48-15.44L255.44-15.44Q257.08-15.44 258.08-16.70Q259.08-17.96 259.08-20.04L259.08-20.04Q259.08-22.20 258.08-23.46Q257.08-24.72 255.44-24.72L255.44-24.72L252.48-24.72Z"/></g>
</svg>
</g><g opacity="1" transform="rotate(0 356.5501 257)">
<svg width="54" height="54" x="356.5501" y="257" version="1.1" preserveAspectRatio="none" viewBox="21 21 158 158">
  <g transform="matrix(-1 0 0 1 200 0)"><g><path d="M179 100c0 43.63-35.37 79-79 79s-79-35.37-79-79 35.37-79 79-79 79 35.37 79 79z" data-color="1" class="icon1"></path><path d="M145 84v6H55v-6h90z" data-color="2" class="icon2"></path><path d="M145 109v6H55v-6h90z" data-color="2" class="icon2"></path></g></g>
</svg>
</g><g opacity="1" transform="rotate(0 163.45 254)">
<svg width="173.1001" height="60" x="163.45" y="254" version="1.1" preserveAspectRatio="none" viewBox="2.16 -28.32 82.6 28.64">
  <g transform="matrix(1 0 0 1 0 0)" class="icon1"><path id="id-D6z1nYkh4" d="M12.28-27.52Q12.28-27.72 12.42-27.86Q12.56-28 12.76-28L12.76-28L16.44-28Q16.64-28 16.78-27.86Q16.92-27.72 16.92-27.52L16.92-27.52L16.92-0.48Q16.92-0.28 16.78-0.14Q16.64 0 16.44 0L16.44 0L12.76 0Q12.56 0 12.42-0.14Q12.28-0.28 12.28-0.48L12.28-0.48L12.28-11.80Q12.28-12 12.08-12L12.08-12L7-12Q6.80-12 6.80-11.80L6.80-11.80L6.80-0.48Q6.80-0.28 6.66-0.14Q6.52 0 6.32 0L6.32 0L2.64 0Q2.44 0 2.30-0.14Q2.16-0.28 2.16-0.48L2.16-0.48L2.16-27.52Q2.16-27.72 2.30-27.86Q2.44-28 2.64-28L2.64-28L6.32-28Q6.52-28 6.66-27.86Q6.80-27.72 6.80-27.52L6.80-27.52L6.80-16.24Q6.80-16.04 7-16.04L7-16.04L12.08-16.04Q12.28-16.04 12.28-16.24L12.28-16.24L12.28-27.52Z M31.60 0.32Q28.16 0.32 26.06-1.76Q23.96-3.84 23.96-7.28L23.96-7.28L23.96-20.72Q23.96-24.16 26.06-26.24Q28.16-28.32 31.60-28.32L31.60-28.32Q35.04-28.32 37.16-26.24Q39.28-24.16 39.28-20.72L39.28-20.72L39.28-7.28Q39.28-3.84 37.16-1.76Q35.04 0.32 31.60 0.32L31.60 0.32ZM31.60-3.68Q32.96-3.68 33.80-4.62Q34.64-5.56 34.64-7.08L34.64-7.08L34.64-20.92Q34.64-22.44 33.80-23.38Q32.96-24.32 31.60-24.32L31.60-24.32Q30.24-24.32 29.42-23.38Q28.60-22.44 28.60-20.92L28.60-20.92L28.60-7.08Q28.60-5.56 29.42-4.62Q30.24-3.68 31.60-3.68L31.60-3.68Z M46.72 0Q46.52 0 46.38-0.14Q46.24-0.28 46.24-0.48L46.24-0.48L46.24-27.52Q46.24-27.72 46.38-27.86Q46.52-28 46.72-28L46.72-28L50.36-28Q50.76-28 50.92-27.64L50.92-27.64L54.76-19Q54.88-18.76 55-19L55-19L58.80-27.64Q58.96-28 59.36-28L59.36-28L63.04-28Q63.24-28 63.38-27.86Q63.52-27.72 63.52-27.52L63.52-27.52L63.52-0.48Q63.52-0.28 63.38-0.14Q63.24 0 63.04 0L63.04 0L59.36 0Q59.16 0 59.02-0.14Q58.88-0.28 58.88-0.48L58.88-0.48L58.88-17.92Q58.88-18.08 58.80-18.08Q58.72-18.08 58.64-17.96L58.64-17.96L55.20-10.96Q55.04-10.60 54.88-10.60L54.88-10.60Q54.76-10.60 54.56-10.96L54.56-10.96L51.12-18.04Q51.04-18.16 50.96-18.14Q50.88-18.12 50.88-17.96L50.88-17.96L50.88-0.48Q50.88-0.28 50.74-0.14Q50.60 0 50.40 0L50.40 0L46.72 0Z M84.76-24.48Q84.76-24.28 84.62-24.14Q84.48-24 84.28-24L84.28-24L75.64-24Q75.44-24 75.44-23.80L75.44-23.80L75.44-16.24Q75.44-16.04 75.64-16.04L75.64-16.04L80.76-16.04Q80.96-16.04 81.10-15.90Q81.24-15.76 81.24-15.56L81.24-15.56L81.24-12.48Q81.24-12.28 81.10-12.14Q80.96-12 80.76-12L80.76-12L75.64-12Q75.44-12 75.44-11.80L75.44-11.80L75.44-4.20Q75.44-4 75.64-4L75.64-4L84.28-4Q84.48-4 84.62-3.86Q84.76-3.72 84.76-3.52L84.76-3.52L84.76-0.48Q84.76-0.28 84.62-0.14Q84.48 0 84.28 0L84.28 0L71.28 0Q71.08 0 70.94-0.14Q70.80-0.28 70.80-0.48L70.80-0.48L70.80-27.52Q70.80-27.72 70.94-27.86Q71.08-28 71.28-28L71.28-28L84.28-28Q84.48-28 84.62-27.86Q84.76-27.72 84.76-27.52L84.76-27.52L84.76-24.48Z"/></g>
</svg>
</g><g opacity="1" transform="rotate(0 430.5501 254)">
<svg width="202.0391" height="60" x="430.5501" y="254" version="1.1" preserveAspectRatio="none" viewBox="2.16 -28.32 96.44 28.64">
  <g transform="matrix(1 0 0 1 0 0)" class="icon1"><path id="id-a8WAvAAzme5" d="M2.64 0Q2.44 0 2.30-0.14Q2.16-0.28 2.16-0.48L2.16-0.48L2.16-27.52Q2.16-27.72 2.30-27.86Q2.44-28 2.64-28L2.64-28L9.48-28Q12.92-28 14.98-25.92Q17.04-23.84 17.04-20.36L17.04-20.36L17.04-7.64Q17.04-4.16 14.98-2.08Q12.92 0 9.48 0L9.48 0L2.64 0ZM6.80-4.20Q6.80-4 7-4L7-4L9.40-4.04Q10.72-4.04 11.54-5.10Q12.36-6.16 12.40-7.92L12.40-7.92L12.40-20.08Q12.40-21.88 11.58-22.94Q10.76-24 9.36-24L9.36-24L7-24Q6.80-24 6.80-23.80L6.80-23.80L6.80-4.20Z M36.84-24.48Q36.84-24.28 36.70-24.14Q36.56-24 36.36-24L36.36-24L27.72-24Q27.52-24 27.52-23.80L27.52-23.80L27.52-16.24Q27.52-16.04 27.72-16.04L27.72-16.04L32.84-16.04Q33.04-16.04 33.18-15.90Q33.32-15.76 33.32-15.56L33.32-15.56L33.32-12.48Q33.32-12.28 33.18-12.14Q33.04-12 32.84-12L32.84-12L27.72-12Q27.52-12 27.52-11.80L27.52-11.80L27.52-4.20Q27.52-4 27.72-4L27.72-4L36.36-4Q36.56-4 36.70-3.86Q36.84-3.72 36.84-3.52L36.84-3.52L36.84-0.48Q36.84-0.28 36.70-0.14Q36.56 0 36.36 0L36.36 0L23.36 0Q23.16 0 23.02-0.14Q22.88-0.28 22.88-0.48L22.88-0.48L22.88-27.52Q22.88-27.72 23.02-27.86Q23.16-28 23.36-28L23.36-28L36.36-28Q36.56-28 36.70-27.86Q36.84-27.72 36.84-27.52L36.84-27.52L36.84-24.48Z M49.32 0.32Q45.92 0.32 43.86-1.74Q41.80-3.80 41.80-7.20L41.80-7.20L41.80-20.84Q41.80-24.28 43.86-26.30Q45.92-28.32 49.32-28.32L49.32-28.32Q52.76-28.32 54.84-26.30Q56.92-24.28 56.92-20.84L56.92-20.84L56.92-20.36Q56.92-20.16 56.78-20Q56.64-19.84 56.44-19.84L56.44-19.84L52.72-19.68Q52.24-19.68 52.24-20.16L52.24-20.16L52.24-21.16Q52.24-22.56 51.44-23.44Q50.64-24.32 49.32-24.32L49.32-24.32Q48.04-24.32 47.24-23.44Q46.44-22.56 46.44-21.16L46.44-21.16L46.44-6.84Q46.44-5.44 47.24-4.56Q48.04-3.68 49.32-3.68L49.32-3.68Q50.64-3.68 51.44-4.56Q52.24-5.44 52.24-6.84L52.24-6.84L52.24-7.84Q52.24-8.04 52.38-8.18Q52.52-8.32 52.72-8.32L52.72-8.32L56.44-8.16Q56.64-8.16 56.78-8.02Q56.92-7.88 56.92-7.68L56.92-7.68L56.92-7.20Q56.92-3.80 54.84-1.74Q52.76 0.32 49.32 0.32L49.32 0.32Z M69.72 0.32Q66.28 0.32 64.18-1.76Q62.08-3.84 62.08-7.28L62.08-7.28L62.08-20.72Q62.08-24.16 64.18-26.24Q66.28-28.32 69.72-28.32L69.72-28.32Q73.16-28.32 75.28-26.24Q77.40-24.16 77.40-20.72L77.40-20.72L77.40-7.28Q77.40-3.84 75.28-1.76Q73.16 0.32 69.72 0.32L69.72 0.32ZM69.72-3.68Q71.08-3.68 71.92-4.62Q72.76-5.56 72.76-7.08L72.76-7.08L72.76-20.92Q72.76-22.44 71.92-23.38Q71.08-24.32 69.72-24.32L69.72-24.32Q68.36-24.32 67.54-23.38Q66.72-22.44 66.72-20.92L66.72-20.92L66.72-7.08Q66.72-5.56 67.54-4.62Q68.36-3.68 69.72-3.68L69.72-3.68Z M94.32 0Q93.92 0 93.80-0.40L93.80-0.40L90.36-11.92Q90.28-12.08 90.16-12.08L90.16-12.08L88.08-12.08Q87.88-12.08 87.88-11.88L87.88-11.88L87.88-0.48Q87.88-0.28 87.74-0.14Q87.60 0 87.40 0L87.40 0L83.72 0Q83.52 0 83.38-0.14Q83.24-0.28 83.24-0.48L83.24-0.48L83.24-27.56Q83.24-27.76 83.38-27.90Q83.52-28.04 83.72-28.04L83.72-28.04L91.24-28.04Q93.36-28.04 94.98-27.02Q96.60-26 97.50-24.14Q98.40-22.28 98.40-19.88L98.40-19.88Q98.40-17.40 97.44-15.58Q96.48-13.76 94.76-12.84L94.76-12.84Q94.60-12.80 94.64-12.60L94.64-12.60L98.56-0.56Q98.60-0.48 98.60-0.36L98.60-0.36Q98.60 0 98.16 0L98.16 0L94.32 0ZM88.08-24.04Q87.88-24.04 87.88-23.84L87.88-23.84L87.88-15.88Q87.88-15.68 88.08-15.68L88.08-15.68L90.52-15.68Q91.96-15.68 92.86-16.80Q93.76-17.92 93.76-19.80L93.76-19.80Q93.76-21.76 92.86-22.90Q91.96-24.04 90.52-24.04L90.52-24.04L88.08-24.04Z"/></g>
</svg>
</g></svg></svg>