<svg version="1.1" preserveAspectRatio="none" xmlns="http://www.w3.org/2000/svg" width="500" height="500" viewBox="0 0 500 500"><rect width="100%" height="100%" fill="#F5F5F5" fill-opacity="1"/><svg viewBox="62.774 159.1783 394.635 184" width="333" height="155.26245771409026" x="83.5px" y="172.3688px" xmlns="http://www.w3.org/2000/svg" xmlns:xlink="http://www.w3.org/1999/xlink" preserveAspectRatio="none"><defs></defs><style>.companyName {fill:#08376B;fill-opacity:1;}.icon1 {fill:#35C0ED;fill-opacity:1;}.icon2 {fill:#9AEBA6;fill-opacity:1;}.icon3 {fill:#2F90B0;fill-opacity:1;}.icon3-str {stroke:#2F90B0;stroke-opacity:1;}.shapeStroke-str {stroke:#08376B;stroke-opacity:1;}.text {fill:#08376B;fill-opacity:1;}</style><g opacity="1" transform="rotate(0 62.774 174.1783)">
<svg width="144.835" height="154" x="62.774" y="174.1783" version="1.1" preserveAspectRatio="none" viewBox="48.948001861572266 45.71799850463867 102.10400390625 108.56500244140625">
  <g transform="matrix(1 0 0 1 0 0)"><g><path data-color="1" d="M116.988 122.729l-34.064 31.092V79.782c0-18.813 15.251-34.064 34.064-34.064v77.011z" class="icon1"></path><path data-color="2" d="M83.012 122.729l-34.064 31.092V79.782c0-18.813 15.251-34.064 34.064-34.064v77.011z" class="icon2"></path><path data-color="3" d="M151.052 122.729l-34.064 31.092V79.782c0-18.813 15.251-34.064 34.064-34.064v77.011z" class="icon3"></path><path data-color="2" d="M150.599 136.412v17.871h-17.871l17.871-17.871z" class="icon2"></path></g></g>
</svg>
</g><g opacity="1" transform="rotate(0 270.609 174.1783)">
<svg width="186.8" height="120" x="270.609" y="174.1783" version="1.1" preserveAspectRatio="none" viewBox="5.2 -28 109.71999999999998 70.48">
  <g transform="matrix(1 0 0 1 0 0)" class="companyName"><path id="id-D6z1nYkh9" d="M8.84 0L8.84-13.92L25.60-13.92L25.60 0L29.24 0L29.24-28L25.60-28L25.60-15.76L8.84-15.76L8.84-28L5.20-28L5.20 0L8.84 0Z M56.76-9.96L56.76-9.96Q56.76-7.88 56.04-5.98Q55.32-4.08 53.98-2.64Q52.64-1.20 50.74-0.36Q48.84 0.48 46.48 0.48L46.48 0.48Q44.08 0.48 42.14-0.38Q40.20-1.24 38.86-2.68Q37.52-4.12 36.78-6.02Q36.04-7.92 36.04-9.96L36.04-9.96Q36.04-12.04 36.78-13.94Q37.52-15.84 38.86-17.28Q40.20-18.72 42.14-19.58Q44.08-20.44 46.48-20.44L46.48-20.44Q48.84-20.44 50.74-19.58Q52.64-18.72 53.98-17.28Q55.32-15.84 56.04-13.94Q56.76-12.04 56.76-9.96ZM52.96-9.96L52.96-9.96Q52.96-12.76 52.36-14.50Q51.76-16.24 50.80-17.20Q49.84-18.16 48.68-18.50Q47.52-18.84 46.44-18.84L46.44-18.84Q45.36-18.84 44.20-18.50Q43.04-18.16 42.06-17.20Q41.08-16.24 40.46-14.50Q39.84-12.76 39.84-9.96L39.84-9.96Q39.84-7.20 40.46-5.46Q41.08-3.72 42.06-2.76Q43.04-1.80 44.20-1.46Q45.36-1.12 46.44-1.12L46.44-1.12Q47.52-1.12 48.68-1.46Q49.84-1.80 50.80-2.76Q51.76-3.72 52.36-5.46Q52.96-7.20 52.96-9.96Z M61.96 0L65.36 0L65.36-11.40Q65.36-12.12 65.48-13.30Q65.60-14.48 66.10-15.62Q66.60-16.76 67.64-17.58Q68.68-18.40 70.56-18.40L70.56-18.40Q71.92-18.40 72.66-17.80Q73.40-17.20 73.76-16.32Q74.12-15.44 74.18-14.48Q74.24-13.52 74.24-12.80L74.24-12.80L74.24 0L77.64 0L77.64-11.40Q77.64-12.28 77.80-13.50Q77.96-14.72 78.48-15.80Q79-16.88 79.98-17.64Q80.96-18.40 82.64-18.40L82.64-18.40Q83.88-18.40 84.64-18.04Q85.40-17.68 85.82-16.96Q86.24-16.24 86.38-15.20Q86.52-14.16 86.52-12.80L86.52-12.80L86.52 0L89.92 0L89.92-13.96Q89.92-14.88 89.72-16.02Q89.52-17.16 88.86-18.14Q88.20-19.12 86.94-19.78Q85.68-20.44 83.60-20.44L83.60-20.44Q83-20.44 82.20-20.32Q81.40-20.20 80.52-19.80Q79.64-19.40 78.82-18.64Q78-17.88 77.40-16.64L77.40-16.64L77.12-16.64Q76.88-17.28 76.44-17.94Q76-18.60 75.32-19.16Q74.64-19.72 73.70-20.08Q72.76-20.44 71.44-20.44L71.44-20.44Q70.84-20.44 70-20.30Q69.16-20.16 68.32-19.76Q67.48-19.36 66.74-18.64Q66-17.92 65.52-16.76L65.52-16.76L65.36-16.76L65.36-20L61.96-20L61.96 0Z M98.88-9.12L114.08-9.12L114.08-9.96Q114.08-12.64 113.32-14.60Q112.56-16.56 111.26-17.84Q109.96-19.12 108.24-19.76Q106.52-20.40 104.60-20.40L104.60-20.40Q102.56-20.40 100.84-19.70Q99.12-19 97.84-17.66Q96.56-16.32 95.84-14.42Q95.12-12.52 95.12-10.12L95.12-10.12Q95.12-8.12 95.74-6.22Q96.36-4.32 97.62-2.82Q98.88-1.32 100.82-0.42Q102.76 0.48 105.40 0.48L105.40 0.48Q107.96 0.48 110.12-0.42Q112.28-1.32 113.88-3L113.88-3L112.60-4.28Q111.76-3.56 111.02-2.96Q110.28-2.36 109.52-1.96Q108.76-1.56 107.94-1.34Q107.12-1.12 106.12-1.12L106.12-1.12Q105-1.12 103.74-1.46Q102.48-1.80 101.40-2.68Q100.32-3.56 99.60-5.12Q98.88-6.68 98.88-9.12L98.88-9.12ZM110.60-10.72L98.88-10.72Q98.88-12.32 99.22-13.82Q99.56-15.32 100.26-16.48Q100.96-17.64 102.04-18.34Q103.12-19.04 104.60-19.04L104.60-19.04Q107.44-19.04 109.02-16.82Q110.60-14.60 110.60-10.72L110.60-10.72Z M14.88 42L5.20 42L5.20 14L14.40 14Q17.72 14 20.48 15.06Q23.24 16.12 25.22 17.98Q27.20 19.84 28.30 22.40Q29.40 24.96 29.40 27.92L29.40 27.92Q29.40 31 28.26 33.58Q27.12 36.16 25.14 38.04Q23.16 39.92 20.52 40.96Q17.88 42 14.88 42L14.88 42ZM8.84 15.76L8.84 40.24L13.24 40.24Q16.52 40.24 18.82 39.14Q21.12 38.04 22.60 36.28Q24.08 34.52 24.76 32.34Q25.44 30.16 25.44 28L25.44 28Q25.44 25.60 24.64 23.38Q23.84 21.16 22.30 19.46Q20.76 17.76 18.48 16.76Q16.20 15.76 13.24 15.76L13.24 15.76L8.84 15.76Z M36.36 32.88L51.56 32.88L51.56 32.04Q51.56 29.36 50.80 27.40Q50.04 25.44 48.74 24.16Q47.44 22.88 45.72 22.24Q44 21.60 42.08 21.60L42.08 21.60Q40.04 21.60 38.32 22.30Q36.60 23 35.32 24.34Q34.04 25.68 33.32 27.58Q32.60 29.48 32.60 31.88L32.60 31.88Q32.60 33.88 33.22 35.78Q33.84 37.68 35.10 39.18Q36.36 40.68 38.30 41.58Q40.24 42.48 42.88 42.48L42.88 42.48Q45.44 42.48 47.60 41.58Q49.76 40.68 51.36 39L51.36 39L50.08 37.72Q49.24 38.44 48.50 39.04Q47.76 39.64 47 40.04Q46.24 40.44 45.42 40.66Q44.60 40.88 43.60 40.88L43.60 40.88Q42.48 40.88 41.22 40.54Q39.96 40.20 38.88 39.32Q37.80 38.44 37.08 36.88Q36.36 35.32 36.36 32.88L36.36 32.88ZM48.08 31.28L36.36 31.28Q36.36 29.68 36.70 28.18Q37.04 26.68 37.74 25.52Q38.44 24.36 39.52 23.66Q40.60 22.96 42.08 22.96L42.08 22.96Q44.92 22.96 46.50 25.18Q48.08 27.40 48.08 31.28L48.08 31.28Z M66.80 40.40L66.80 40.40Q65.36 40.40 64.02 39.96Q62.68 39.52 61.64 38.54Q60.60 37.56 59.98 35.94Q59.36 34.32 59.36 31.96L59.36 31.96Q59.36 29.52 60.04 27.82Q60.72 26.12 61.74 25.10Q62.76 24.08 64 23.62Q65.24 23.16 66.36 23.16L66.36 23.16Q68.20 23.16 69.56 24.12Q70.92 25.08 71.36 26.48L71.36 26.48L74.12 26.48Q73.72 25.04 72.84 24.10Q71.96 23.16 70.82 22.58Q69.68 22 68.38 21.78Q67.08 21.56 65.88 21.56L65.88 21.56Q63.36 21.56 61.44 22.38Q59.52 23.20 58.20 24.60Q56.88 26 56.22 27.88Q55.56 29.76 55.56 31.88L55.56 31.88Q55.56 34.12 56.28 36.06Q57 38 58.34 39.42Q59.68 40.84 61.56 41.66Q63.44 42.48 65.80 42.48L65.80 42.48Q68.44 42.48 70.42 41.60Q72.40 40.72 73.76 39.68L73.76 39.68L72.60 38.16Q71.20 39.32 69.82 39.86Q68.44 40.40 66.80 40.40Z M98.04 32.04L98.04 32.04Q98.04 34.12 97.32 36.02Q96.60 37.92 95.26 39.36Q93.92 40.80 92.02 41.64Q90.12 42.48 87.76 42.48L87.76 42.48Q85.36 42.48 83.42 41.62Q81.48 40.76 80.14 39.32Q78.80 37.88 78.06 35.98Q77.32 34.08 77.32 32.04L77.32 32.04Q77.32 29.96 78.06 28.06Q78.80 26.16 80.14 24.72Q81.48 23.28 83.42 22.42Q85.36 21.56 87.76 21.56L87.76 21.56Q90.12 21.56 92.02 22.42Q93.92 23.28 95.26 24.72Q96.60 26.16 97.32 28.06Q98.04 29.96 98.04 32.04ZM94.24 32.04L94.24 32.04Q94.24 29.24 93.64 27.50Q93.04 25.76 92.08 24.80Q91.12 23.84 89.96 23.50Q88.80 23.16 87.72 23.16L87.72 23.16Q86.64 23.16 85.48 23.50Q84.32 23.84 83.34 24.80Q82.36 25.76 81.74 27.50Q81.12 29.24 81.12 32.04L81.12 32.04Q81.12 34.80 81.74 36.54Q82.36 38.28 83.34 39.24Q84.32 40.20 85.48 40.54Q86.64 40.88 87.72 40.88L87.72 40.88Q88.80 40.88 89.96 40.54Q91.12 40.20 92.08 39.24Q93.04 38.28 93.64 36.54Q94.24 34.80 94.24 32.04Z M106.64 22L103.24 22L103.24 42L106.64 42L106.64 29.92Q106.64 28.28 107.02 27.14Q107.40 26 108 25.28Q108.60 24.56 109.32 24.24Q110.04 23.92 110.72 23.92L110.72 23.92Q111.64 23.92 112.42 24.52Q113.20 25.12 113.56 25.64L113.56 25.64L114.92 23.16Q114.56 22.68 114.06 22.36Q113.56 22.04 113.06 21.86Q112.56 21.68 112.14 21.62Q111.72 21.56 111.52 21.56L111.52 21.56Q109.84 21.56 108.72 22.48Q107.60 23.40 106.88 25.20L106.88 25.20L106.64 25.20L106.64 22Z"/></g>
</svg>
</g><g opacity="1" transform="rotate(0 237.609 159.1783)">
<svg width="3" height="184" x="237.609" y="159.1783" version="1.1" preserveAspectRatio="none" viewBox="0 0 3 184">
  <defs><rect x="0" y="0" width="3" height="184" rx="0px" ry="0px" id="id-tBXipXk0b1721138300639"></rect></defs><use class="companyName shapeStroke-str" style="stroke-width:0;" xlink:href="#id-tBXipXk0b1721138300639"></use>
</svg>
</g><g opacity="1" transform="rotate(0 270.609 310.1783)">
<svg width="165.9201" height="18" x="270.609" y="310.1783" version="1.1" preserveAspectRatio="none" viewBox="4.56 -28 260 28.2">
  <g transform="matrix(1 0 0 1 0 0)" class="text"><path id="id-D-YM9nyY410" d="M25.04-28L27.96-28L27.96 0L25.04 0L25.04-12.92L7.52-12.92L7.52 0L4.56 0L4.56-28L7.52-28L7.52-15.52L25.04-15.52L25.04-28Z M46.28 0.20Q43.24 0.20 40.80-1.18Q38.36-2.56 36.96-5Q35.56-7.44 35.56-10.52L35.56-10.52Q35.56-13.60 36.96-16.04Q38.36-18.48 40.80-19.84Q43.24-21.20 46.28-21.20L46.28-21.20Q49.32-21.20 51.76-19.84Q54.20-18.48 55.58-16.04Q56.96-13.60 56.96-10.52L56.96-10.52Q56.96-7.44 55.58-5Q54.20-2.56 51.76-1.18Q49.32 0.20 46.28 0.20L46.28 0.20ZM46.28-2.32Q48.52-2.32 50.30-3.34Q52.08-4.36 53.08-6.24Q54.08-8.12 54.08-10.52L54.08-10.52Q54.08-12.92 53.08-14.80Q52.08-16.68 50.30-17.70Q48.52-18.72 46.28-18.72L46.28-18.72Q44.04-18.72 42.26-17.70Q40.48-16.68 39.46-14.80Q38.44-12.92 38.44-10.52L38.44-10.52Q38.44-8.12 39.46-6.24Q40.48-4.36 42.26-3.34Q44.04-2.32 46.28-2.32L46.28-2.32Z M90.20-21.20Q94.16-21.20 96.42-18.92Q98.68-16.64 98.68-12.20L98.68-12.20L98.68 0L95.84 0L95.84-11.92Q95.84-15.20 94.26-16.92Q92.68-18.64 89.80-18.64L89.80-18.64Q86.52-18.64 84.64-16.62Q82.76-14.60 82.76-11.04L82.76-11.04L82.76 0L79.92 0L79.92-11.92Q79.92-15.20 78.34-16.92Q76.76-18.64 73.84-18.64L73.84-18.64Q70.60-18.64 68.70-16.62Q66.80-14.60 66.80-11.04L66.80-11.04L66.80 0L63.96 0L63.96-21.04L66.68-21.04L66.68-17.20Q67.80-19.12 69.80-20.16Q71.80-21.20 74.40-21.20L74.40-21.20Q77.04-21.20 78.98-20.08Q80.92-18.96 81.88-16.76L81.88-16.76Q83.04-18.84 85.22-20.02Q87.40-21.20 90.20-21.20L90.20-21.20Z M126.04-10.52L126.00-9.64L108.40-9.64Q108.64-6.36 110.92-4.34Q113.20-2.32 116.68-2.32L116.68-2.32Q118.64-2.32 120.28-3.02Q121.92-3.72 123.12-5.08L123.12-5.08L124.72-3.24Q123.32-1.56 121.22-0.68Q119.12 0.20 116.60 0.20L116.60 0.20Q113.36 0.20 110.86-1.18Q108.36-2.56 106.96-5Q105.56-7.44 105.56-10.52L105.56-10.52Q105.56-13.60 106.90-16.04Q108.24-18.48 110.58-19.84Q112.92-21.20 115.84-21.20L115.84-21.20Q118.76-21.20 121.08-19.84Q123.40-18.48 124.72-16.06Q126.04-13.64 126.04-10.52L126.04-10.52ZM115.84-18.76Q112.80-18.76 110.74-16.82Q108.68-14.88 108.40-11.76L108.40-11.76L123.32-11.76Q123.04-14.88 120.98-16.82Q118.92-18.76 115.84-18.76L115.84-18.76Z M145.32 0L145.32-28L156.72-28Q161.16-28 164.56-26.22Q167.96-24.44 169.84-21.26Q171.72-18.08 171.72-14L171.72-14Q171.72-9.92 169.84-6.74Q167.96-3.56 164.56-1.78Q161.16 0 156.72 0L156.72 0L145.32 0ZM148.28-2.56L156.56-2.56Q160.24-2.56 163-4.02Q165.76-5.48 167.28-8.06Q168.80-10.64 168.80-14L168.80-14Q168.80-17.36 167.28-19.94Q165.76-22.52 163-23.98Q160.24-25.44 156.56-25.44L156.56-25.44L148.28-25.44L148.28-2.56Z M197.32-10.52L197.28-9.64L179.68-9.64Q179.92-6.36 182.20-4.34Q184.48-2.32 187.96-2.32L187.96-2.32Q189.92-2.32 191.56-3.02Q193.20-3.72 194.40-5.08L194.40-5.08L196.00-3.24Q194.60-1.56 192.50-0.68Q190.40 0.20 187.88 0.20L187.88 0.20Q184.64 0.20 182.14-1.18Q179.64-2.56 178.24-5Q176.84-7.44 176.84-10.52L176.84-10.52Q176.84-13.60 178.18-16.04Q179.52-18.48 181.86-19.84Q184.20-21.20 187.12-21.20L187.12-21.20Q190.04-21.20 192.36-19.84Q194.68-18.48 196.00-16.06Q197.32-13.64 197.32-10.52L197.32-10.52ZM187.12-18.76Q184.08-18.76 182.02-16.82Q179.96-14.88 179.68-11.76L179.68-11.76L194.60-11.76Q194.32-14.88 192.26-16.82Q190.20-18.76 187.12-18.76L187.12-18.76Z M213.04 0.20Q209.92 0.20 207.46-1.16Q205.00-2.52 203.60-4.98Q202.20-7.44 202.20-10.52L202.20-10.52Q202.20-13.60 203.60-16.04Q205.00-18.48 207.46-19.84Q209.92-21.20 213.04-21.20L213.04-21.20Q215.76-21.20 217.90-20.14Q220.04-19.08 221.28-17.04L221.28-17.04L219.16-15.60Q218.12-17.16 216.52-17.94Q214.92-18.72 213.04-18.72L213.04-18.72Q210.76-18.72 208.94-17.70Q207.12-16.68 206.10-14.80Q205.08-12.92 205.08-10.52L205.08-10.52Q205.08-8.08 206.10-6.22Q207.12-4.36 208.94-3.34Q210.76-2.32 213.04-2.32L213.04-2.32Q214.92-2.32 216.52-3.08Q218.12-3.84 219.16-5.40L219.16-5.40L221.28-3.96Q220.04-1.92 217.88-0.86Q215.72 0.20 213.04 0.20L213.04 0.20Z M236.28 0.20Q233.24 0.20 230.80-1.18Q228.36-2.56 226.96-5Q225.56-7.44 225.56-10.52L225.56-10.52Q225.56-13.60 226.96-16.04Q228.36-18.48 230.80-19.84Q233.24-21.20 236.28-21.20L236.28-21.20Q239.32-21.20 241.76-19.84Q244.20-18.48 245.58-16.04Q246.96-13.60 246.96-10.52L246.96-10.52Q246.96-7.44 245.58-5Q244.20-2.56 241.76-1.18Q239.32 0.20 236.28 0.20L236.28 0.20ZM236.28-2.32Q238.52-2.32 240.30-3.34Q242.08-4.36 243.08-6.24Q244.08-8.12 244.08-10.52L244.08-10.52Q244.08-12.92 243.08-14.80Q242.08-16.68 240.30-17.70Q238.52-18.72 236.28-18.72L236.28-18.72Q234.04-18.72 232.26-17.70Q230.48-16.68 229.46-14.80Q228.44-12.92 228.44-10.52L228.44-10.52Q228.44-8.12 229.46-6.24Q230.48-4.36 232.26-3.34Q234.04-2.32 236.28-2.32L236.28-2.32Z M256.68-16.92Q257.68-19.04 259.66-20.12Q261.64-21.20 264.56-21.20L264.56-21.20L264.56-18.44L263.88-18.48Q260.56-18.48 258.68-16.44Q256.80-14.40 256.80-10.72L256.80-10.72L256.80 0L253.96 0L253.96-21.04L256.68-21.04L256.68-16.92Z"/></g>
</svg>
</g></svg></svg>